<svg width="865" height="206" viewBox="0 0 865 206" fill="none" xmlns="http://www.w3.org/2000/svg">
<g filter="url(#filter0_d_23_47)">
<path d="M4.904 155L35.336 87.8H44.84L75.368 155H65.288L38.12 93.176H41.96L14.792 155H4.904ZM17.864 138.2L20.456 130.52H58.28L61.064 138.2H17.864ZM84.0485 155V83.768H93.2645V155H84.0485ZM110.861 155V104.12H120.077V155H110.861ZM115.469 94.328C113.677 94.328 112.173 93.752 110.957 92.6C109.805 91.448 109.229 90.04 109.229 88.376C109.229 86.648 109.805 85.208 110.957 84.056C112.173 82.904 113.677 82.328 115.469 82.328C117.261 82.328 118.733 82.904 119.885 84.056C121.101 85.144 121.709 86.52 121.709 88.184C121.709 89.912 121.133 91.384 119.981 92.6C118.829 93.752 117.325 94.328 115.469 94.328ZM159.946 174.2C155.274 174.2 150.73 173.528 146.314 172.184C141.962 170.904 138.41 169.048 135.658 166.616L140.074 159.512C142.442 161.56 145.354 163.16 148.81 164.312C152.266 165.528 155.882 166.136 159.658 166.136C165.674 166.136 170.09 164.728 172.906 161.912C175.722 159.096 177.13 154.808 177.13 149.048V138.296L178.09 128.216L177.61 118.04V104.12H186.346V148.088C186.346 157.048 184.106 163.64 179.625 167.864C175.146 172.088 168.586 174.2 159.946 174.2ZM158.794 152.888C153.866 152.888 149.45 151.864 145.546 149.816C141.706 147.704 138.634 144.792 136.33 141.08C134.09 137.368 132.97 133.08 132.97 128.216C132.97 123.288 134.09 119 136.33 115.352C138.634 111.64 141.706 108.76 145.546 106.712C149.45 104.664 153.866 103.64 158.794 103.64C163.146 103.64 167.114 104.536 170.698 106.328C174.282 108.056 177.13 110.744 179.242 114.392C181.418 118.04 182.506 122.648 182.506 128.216C182.506 133.72 181.418 138.296 179.242 141.944C177.13 145.592 174.282 148.344 170.698 150.2C167.114 151.992 163.146 152.888 158.794 152.888ZM159.85 144.824C163.242 144.824 166.25 144.12 168.874 142.712C171.498 141.304 173.546 139.352 175.018 136.856C176.554 134.36 177.322 131.48 177.322 128.216C177.322 124.952 176.554 122.072 175.018 119.576C173.546 117.08 171.498 115.16 168.874 113.816C166.25 112.408 163.242 111.704 159.85 111.704C156.458 111.704 153.418 112.408 150.73 113.816C148.106 115.16 146.026 117.08 144.49 119.576C143.018 122.072 142.282 124.952 142.282 128.216C142.282 131.48 143.018 134.36 144.49 136.856C146.026 139.352 148.106 141.304 150.73 142.712C153.418 144.12 156.458 144.824 159.85 144.824ZM231.123 103.64C235.283 103.64 238.931 104.44 242.067 106.04C245.267 107.64 247.763 110.072 249.555 113.336C251.347 116.6 252.243 120.728 252.243 125.72V155H243.027V126.776C243.027 121.848 241.811 118.136 239.379 115.64C237.011 113.144 233.651 111.896 229.299 111.896C226.035 111.896 223.187 112.536 220.755 113.816C218.323 115.096 216.435 116.984 215.091 119.48C213.811 121.976 213.171 125.08 213.171 128.792V155H203.955V104.12H212.787V117.848L211.347 114.2C213.011 110.872 215.571 108.28 219.027 106.424C222.483 104.568 226.515 103.64 231.123 103.64ZM332.947 103.64C337.043 103.64 340.659 104.44 343.795 106.04C346.931 107.64 349.363 110.072 351.091 113.336C352.883 116.6 353.779 120.728 353.779 125.72V155H344.563V126.776C344.563 121.848 343.411 118.136 341.107 115.64C338.803 113.144 335.571 111.896 331.411 111.896C328.339 111.896 325.651 112.536 323.347 113.816C321.043 115.096 319.251 116.984 317.971 119.48C316.755 121.976 316.147 125.08 316.147 128.792V155H306.931V126.776C306.931 121.848 305.779 118.136 303.475 115.64C301.235 113.144 298.003 111.896 293.779 111.896C290.771 111.896 288.115 112.536 285.811 113.816C283.507 115.096 281.715 116.984 280.435 119.48C279.155 121.976 278.515 125.08 278.515 128.792V155H269.299V104.12H278.131V117.656L276.691 114.2C278.291 110.872 280.755 108.28 284.083 106.424C287.411 104.568 291.283 103.64 295.699 103.64C300.563 103.64 304.755 104.856 308.275 107.288C311.795 109.656 314.099 113.272 315.187 118.136L311.443 116.6C312.979 112.696 315.667 109.56 319.507 107.192C323.347 104.824 327.827 103.64 332.947 103.64ZM393.392 155.576C387.952 155.576 383.152 154.456 378.992 152.216C374.896 149.976 371.696 146.904 369.392 143C367.152 139.096 366.032 134.616 366.032 129.56C366.032 124.504 367.12 120.024 369.296 116.12C371.536 112.216 374.576 109.176 378.416 107C382.32 104.76 386.704 103.64 391.568 103.64C396.496 103.64 400.848 104.728 404.624 106.904C408.4 109.08 411.344 112.152 413.456 116.12C415.632 120.024 416.72 124.6 416.72 129.848C416.72 130.232 416.688 130.68 416.624 131.192C416.624 131.704 416.592 132.184 416.528 132.632H373.232V126.008H411.728L407.984 128.312C408.048 125.048 407.376 122.136 405.968 119.576C404.56 117.016 402.608 115.032 400.112 113.624C397.68 112.152 394.832 111.416 391.568 111.416C388.368 111.416 385.52 112.152 383.024 113.624C380.528 115.032 378.576 117.048 377.168 119.672C375.76 122.232 375.056 125.176 375.056 128.504V130.04C375.056 133.432 375.824 136.472 377.36 139.16C378.96 141.784 381.168 143.832 383.984 145.304C386.8 146.776 390.032 147.512 393.68 147.512C396.688 147.512 399.408 147 401.84 145.976C404.336 144.952 406.512 143.416 408.368 141.368L413.456 147.32C411.152 150.008 408.272 152.056 404.816 153.464C401.424 154.872 397.616 155.576 393.392 155.576ZM456.685 103.64C460.845 103.64 464.493 104.44 467.629 106.04C470.829 107.64 473.325 110.072 475.117 113.336C476.909 116.6 477.805 120.728 477.805 125.72V155H468.589V126.776C468.589 121.848 467.373 118.136 464.941 115.64C462.573 113.144 459.213 111.896 454.861 111.896C451.597 111.896 448.749 112.536 446.317 113.816C443.885 115.096 441.997 116.984 440.653 119.48C439.373 121.976 438.733 125.08 438.733 128.792V155H429.517V104.12H438.349V117.848L436.909 114.2C438.573 110.872 441.133 108.28 444.589 106.424C448.045 104.568 452.077 103.64 456.685 103.64ZM512.333 155.576C507.213 155.576 503.245 154.2 500.429 151.448C497.613 148.696 496.205 144.76 496.205 139.64V92.984H505.421V139.256C505.421 142.008 506.093 144.12 507.437 145.592C508.845 147.064 510.829 147.8 513.389 147.8C516.269 147.8 518.669 147 520.589 145.4L523.469 152.024C522.061 153.24 520.365 154.136 518.381 154.712C516.461 155.288 514.445 155.576 512.333 155.576ZM487.565 111.704V104.12H520.013V111.704H487.565ZM592.072 155.768C586.888 155.768 582.12 154.936 577.768 153.272C573.416 151.544 569.64 149.144 566.44 146.072C563.24 142.936 560.744 139.288 558.952 135.128C557.16 130.968 556.264 126.392 556.264 121.4C556.264 116.408 557.16 111.832 558.952 107.672C560.744 103.512 563.24 99.896 566.44 96.824C569.704 93.688 573.512 91.288 577.864 89.624C582.216 87.896 587.016 87.032 592.264 87.032C597.576 87.032 602.44 87.896 606.856 89.624C611.272 91.352 615.016 93.944 618.088 97.4L612.136 103.352C609.384 100.664 606.376 98.712 603.112 97.496C599.912 96.216 596.424 95.576 592.648 95.576C588.808 95.576 585.224 96.216 581.896 97.496C578.632 98.776 575.784 100.568 573.352 102.872C570.984 105.176 569.128 107.928 567.784 111.128C566.504 114.264 565.864 117.688 565.864 121.4C565.864 125.048 566.504 128.472 567.784 131.672C569.128 134.808 570.984 137.56 573.352 139.928C575.784 142.232 578.632 144.024 581.896 145.304C585.16 146.584 588.712 147.224 592.552 147.224C596.136 147.224 599.56 146.68 602.824 145.592C606.152 144.44 609.224 142.552 612.04 139.928L617.512 147.224C614.184 150.04 610.28 152.184 605.8 153.656C601.384 155.064 596.808 155.768 592.072 155.768ZM608.296 145.976V121.016H617.512V147.224L608.296 145.976ZM634.549 155V104.12H643.381V117.944L642.517 114.488C643.925 110.968 646.293 108.28 649.621 106.424C652.949 104.568 657.045 103.64 661.909 103.64V112.568C661.525 112.504 661.141 112.472 660.757 112.472C660.437 112.472 660.117 112.472 659.797 112.472C654.869 112.472 650.965 113.944 648.085 116.888C645.205 119.832 643.765 124.088 643.765 129.656V155H634.549ZM701.101 155V144.248L700.621 142.232V123.896C700.621 119.992 699.469 116.984 697.165 114.872C694.925 112.696 691.533 111.608 686.989 111.608C683.981 111.608 681.037 112.12 678.157 113.144C675.277 114.104 672.845 115.416 670.861 117.08L667.021 110.168C669.645 108.056 672.781 106.456 676.429 105.368C680.141 104.216 684.013 103.64 688.045 103.64C695.021 103.64 700.397 105.336 704.173 108.728C707.949 112.12 709.837 117.304 709.837 124.28V155H701.101ZM684.397 155.576C680.621 155.576 677.293 154.936 674.413 153.656C671.597 152.376 669.421 150.616 667.885 148.376C666.349 146.072 665.581 143.48 665.581 140.6C665.581 137.848 666.221 135.352 667.501 133.112C668.845 130.872 670.989 129.08 673.933 127.736C676.941 126.392 680.973 125.72 686.029 125.72H702.157V132.344H686.413C681.805 132.344 678.701 133.112 677.101 134.648C675.501 136.184 674.701 138.04 674.701 140.216C674.701 142.712 675.693 144.728 677.677 146.264C679.661 147.736 682.413 148.472 685.933 148.472C689.389 148.472 692.397 147.704 694.957 146.168C697.581 144.632 699.469 142.392 700.621 139.448L702.445 145.784C701.229 148.792 699.085 151.192 696.013 152.984C692.941 154.712 689.069 155.576 684.397 155.576ZM753.868 155.576C749.644 155.576 745.772 154.616 742.252 152.696C738.796 150.712 736.012 147.8 733.9 143.96C731.852 140.12 730.828 135.32 730.828 129.56C730.828 123.8 731.82 119 733.804 115.16C735.852 111.32 738.604 108.44 742.06 106.52C745.58 104.6 749.516 103.64 753.868 103.64C758.86 103.64 763.276 104.728 767.116 106.904C770.956 109.08 773.996 112.12 776.236 116.024C778.476 119.864 779.596 124.376 779.596 129.56C779.596 134.744 778.476 139.288 776.236 143.192C773.996 147.096 770.956 150.136 767.116 152.312C763.276 154.488 758.86 155.576 753.868 155.576ZM726.892 173.624V104.12H735.724V117.848L735.148 129.656L736.108 141.464V173.624H726.892ZM753.1 147.512C756.364 147.512 759.276 146.776 761.836 145.304C764.46 143.832 766.508 141.752 767.98 139.064C769.516 136.312 770.284 133.144 770.284 129.56C770.284 125.912 769.516 122.776 767.98 120.152C766.508 117.464 764.46 115.384 761.836 113.912C759.276 112.44 756.364 111.704 753.1 111.704C749.9 111.704 746.988 112.44 744.364 113.912C741.804 115.384 739.756 117.464 738.22 120.152C736.748 122.776 736.012 125.912 736.012 129.56C736.012 133.144 736.748 136.312 738.22 139.064C739.756 141.752 741.804 143.832 744.364 145.304C746.988 146.776 749.9 147.512 753.1 147.512ZM819.498 103.64C823.658 103.64 827.306 104.44 830.442 106.04C833.642 107.64 836.138 110.072 837.93 113.336C839.722 116.6 840.618 120.728 840.618 125.72V155H831.402V126.776C831.402 121.848 830.186 118.136 827.754 115.64C825.386 113.144 822.026 111.896 817.674 111.896C814.41 111.896 811.562 112.536 809.13 113.816C806.698 115.096 804.81 116.984 803.466 119.48C802.186 121.976 801.546 125.08 801.546 128.792V155H792.33V83.768H801.546V117.848L799.722 114.2C801.386 110.872 803.946 108.28 807.402 106.424C810.858 104.568 814.89 103.64 819.498 103.64Z" fill="url(#paint0_linear_23_47)"/>
</g>
<path d="M441.432 28L56 28.3928" stroke="#4F4F4F" stroke-width="5"/>
<circle cx="440.5" cy="27.5" r="27.5" fill="#284B63"/>
<circle cx="40.5" cy="27.5" r="27.5" fill="#84A59D"/>
<circle cx="818.5" cy="27.5" r="16" fill="#84A59D" stroke="#84A59D" stroke-width="23"/>
<defs>
<filter id="filter0_d_23_47" x="0.903809" y="82.328" width="843.714" height="99.872" filterUnits="userSpaceOnUse" color-interpolation-filters="sRGB">
<feFlood flood-opacity="0" result="BackgroundImageFix"/>
<feColorMatrix in="SourceAlpha" type="matrix" values="0 0 0 0 0 0 0 0 0 0 0 0 0 0 0 0 0 0 127 0" result="hardAlpha"/>
<feOffset dy="4"/>
<feGaussianBlur stdDeviation="2"/>
<feComposite in2="hardAlpha" operator="out"/>
<feColorMatrix type="matrix" values="0 0 0 0 0 0 0 0 0 0 0 0 0 0 0 0 0 0 0.25 0"/>
<feBlend mode="normal" in2="BackgroundImageFix" result="effect1_dropShadow_23_47"/>
<feBlend mode="normal" in="SourceGraphic" in2="effect1_dropShadow_23_47" result="shape"/>
</filter>
<linearGradient id="paint0_linear_23_47" x1="5" y1="120.5" x2="865" y2="120.992" gradientUnits="userSpaceOnUse">
<stop stop-color="#84A59D"/>
<stop offset="0.5" stop-color="#284B63"/>
<stop offset="1" stop-color="#84A59D"/>
</linearGradient>
</defs>
</svg>
