<svg width="65" height="64" viewBox="0 0 65 64" fill="none" xmlns="http://www.w3.org/2000/svg">
<mask id="path-1-inside-1_1_18" fill="white">
<path fill-rule="evenodd" clip-rule="evenodd" d="M48.3333 10H31.6667V26.6667H15V43.3333H31.6667V60H48.3333V43.3333H65V26.6667H48.3333V10Z"/>
</mask>
<path d="M31.6667 10V9H30.6667V10H31.6667ZM48.3333 10H49.3333V9H48.3333V10ZM31.6667 26.6667V27.6667H32.6667V26.6667H31.6667ZM15 26.6667V25.6667H14V26.6667H15ZM15 43.3333H14V44.3333H15V43.3333ZM31.6667 43.3333H32.6667V42.3333H31.6667V43.3333ZM31.6667 60H30.6667V61H31.6667V60ZM48.3333 60V61H49.3333V60H48.3333ZM48.3333 43.3333V42.3333H47.3333V43.3333H48.3333ZM65 43.3333V44.3333H66V43.3333H65ZM65 26.6667H66V25.6667H65V26.6667ZM48.3333 26.6667H47.3333V27.6667H48.3333V26.6667ZM31.6667 11H48.3333V9H31.6667V11ZM32.6667 26.6667V10H30.6667V26.6667H32.6667ZM15 27.6667H31.6667V25.6667H15V27.6667ZM16 43.3333V26.6667H14V43.3333H16ZM31.6667 42.3333H15V44.3333H31.6667V42.3333ZM32.6667 60V43.3333H30.6667V60H32.6667ZM48.3333 59H31.6667V61H48.3333V59ZM47.3333 43.3333V60H49.3333V43.3333H47.3333ZM65 42.3333H48.3333V44.3333H65V42.3333ZM64 26.6667V43.3333H66V26.6667H64ZM48.3333 27.6667H65V25.6667H48.3333V27.6667ZM47.3333 10V26.6667H49.3333V10H47.3333Z" fill="white" mask="url(#path-1-inside-1_1_18)"/>
<mask id="path-3-inside-2_1_18" fill="white">
<path fill-rule="evenodd" clip-rule="evenodd" d="M60.3333 0H55.6667V4.66667H51V9.33334H55.6667V14H60.3333V9.33334H65V4.66667H60.3333V0Z"/>
</mask>
<path d="M55.6667 0V-1H54.6667V0H55.6667ZM60.3333 0H61.3333V-1H60.3333V0ZM55.6667 4.66667V5.66667H56.6667V4.66667H55.6667ZM51 4.66667V3.66667H50V4.66667H51ZM51 9.33334H50V10.3333H51V9.33334ZM55.6667 9.33334H56.6667V8.33334H55.6667V9.33334ZM55.6667 14H54.6667V15H55.6667V14ZM60.3333 14V15H61.3333V14H60.3333ZM60.3333 9.33334V8.33334H59.3333V9.33334H60.3333ZM65 9.33334V10.3333H66V9.33334H65ZM65 4.66667H66V3.66667H65V4.66667ZM60.3333 4.66667H59.3333V5.66667H60.3333V4.66667ZM55.6667 1H60.3333V-1H55.6667V1ZM56.6667 4.66667V0H54.6667V4.66667H56.6667ZM51 5.66667H55.6667V3.66667H51V5.66667ZM52 9.33334V4.66667H50V9.33334H52ZM55.6667 8.33334H51V10.3333H55.6667V8.33334ZM56.6667 14V9.33334H54.6667V14H56.6667ZM60.3333 13H55.6667V15H60.3333V13ZM59.3333 9.33334V14H61.3333V9.33334H59.3333ZM65 8.33334H60.3333V10.3333H65V8.33334ZM64 4.66667V9.33334H66V4.66667H64ZM60.3333 5.66667H65V3.66667H60.3333V5.66667ZM59.3333 0V4.66667H61.3333V0H59.3333Z" fill="white" mask="url(#path-3-inside-2_1_18)"/>
<mask id="path-5-inside-3_1_18" fill="white">
<path fill-rule="evenodd" clip-rule="evenodd" d="M13.3333 44H6.66667V50.6667H0V57.3333H6.66667V64H13.3333V57.3333H20V50.6667H13.3333V44Z"/>
</mask>
<path d="M6.66667 44V43H5.66667V44H6.66667ZM13.3333 44H14.3333V43H13.3333V44ZM6.66667 50.6667V51.6667H7.66667V50.6667H6.66667ZM0 50.6667V49.6667H-1V50.6667H0ZM0 57.3333H-1V58.3333H0V57.3333ZM6.66667 57.3333H7.66667V56.3333H6.66667V57.3333ZM6.66667 64H5.66667V65H6.66667V64ZM13.3333 64V65H14.3333V64H13.3333ZM13.3333 57.3333V56.3333H12.3333V57.3333H13.3333ZM20 57.3333V58.3333H21V57.3333H20ZM20 50.6667H21V49.6667H20V50.6667ZM13.3333 50.6667H12.3333V51.6667H13.3333V50.6667ZM6.66667 45H13.3333V43H6.66667V45ZM7.66667 50.6667V44H5.66667V50.6667H7.66667ZM0 51.6667H6.66667V49.6667H0V51.6667ZM1 57.3333V50.6667H-1V57.3333H1ZM6.66667 56.3333H0V58.3333H6.66667V56.3333ZM7.66667 64V57.3333H5.66667V64H7.66667ZM13.3333 63H6.66667V65H13.3333V63ZM12.3333 57.3333V64H14.3333V57.3333H12.3333ZM20 56.3333H13.3333V58.3333H20V56.3333ZM19 50.6667V57.3333H21V50.6667H19ZM13.3333 51.6667H20V49.6667H13.3333V51.6667ZM12.3333 44V50.6667H14.3333V44H12.3333Z" fill="white" mask="url(#path-5-inside-3_1_18)"/>
</svg>
